<svg xmlns="http://www.w3.org/2000/svg" viewBox="0 0 30.051 30.051"><path d="M15.026 0C6.726 0 0 6.729 0 15.028c0 8.3 6.726 15.023 15.026 15.023 8.298 0 15.025-6.724 15.025-15.023C30.052 6.729 23.324 0 15.026 0zm0 27.542c-6.912 0-12.516-5.602-12.516-12.515 0-6.91 5.604-12.517 12.516-12.517 6.911 0 12.514 5.606 12.514 12.517.001 6.914-5.603 12.515-12.514 12.515z"/><path d="M7.99 14.943l5.428-4.484s.641-.681.641.056v2.526h7.895s.382-.101.382.482v3.559c0 .422-.319.412-.319.412h-7.962v2.331c0 .9-.64.12-.64.12S8.478 16.232 7.946 15.7c-.386-.388.044-.757.044-.757z"/></svg>